<?xml version="1.0" standalone="no"?>
<!DOCTYPE svg PUBLIC "-//W3C//DTD SVG 20010904//EN"
 "http://www.w3.org/TR/2001/REC-SVG-20010904/DTD/svg10.dtd">
<svg version="1.0" xmlns="http://www.w3.org/2000/svg"
 width="200.000000pt" height="200.000000pt" viewBox="0 0 200.000000 200.000000"
 preserveAspectRatio="xMidYMid meet">

<g transform="translate(0.000000,200.000000) scale(0.100000,-0.100000)"
fill="#000000" stroke="none">
<path d="M545 1370 c-55 -11 -116 -22 -135 -25 -46 -9 -30 -17 92 -46 145 -34
144 -32 98 -231 -20 -87 -34 -158 -30 -158 3 0 21 64 39 143 42 184 38 172 64
186 19 10 35 9 86 -4 35 -9 65 -14 68 -11 5 5 -45 20 -104 32 -35 7 -46 28
-47 89 -1 27 -6 40 -16 41 -8 1 -60 -6 -115 -16z m121 -12 c-3 -13 -6 -28 -6
-33 0 -6 -13 -16 -29 -23 -25 -11 -41 -10 -106 7 -42 11 -79 22 -82 24 -2 3
29 10 69 17 40 7 89 16 108 20 52 12 53 12 46 -12z"/>
<path d="M214 1070 c-11 -61 -17 -107 -12 -102 4 4 15 48 24 97 9 50 18 92 20
94 3 3 23 -13 47 -35 l42 -39 -45 48 c-24 26 -47 47 -50 47 -3 0 -15 -50 -26
-110z"/>
<path d="M767 1103 c-76 -86 -85 -113 -11 -32 27 29 59 62 72 73 22 19 29 36
15 36 -5 -1 -38 -35 -76 -77z"/>
<path d="M410 1005 c13 -14 26 -25 28 -25 3 0 -5 11 -18 25 -13 14 -26 25 -28
25 -3 0 5 -11 18 -25z"/>
<path d="M490 925 c19 -19 36 -35 39 -35 3 0 -10 16 -29 35 -19 19 -36 35 -39
35 -3 0 10 -16 29 -35z"/>
<path d="M600 915 c-7 -9 -11 -18 -8 -20 3 -3 11 1 18 10 7 9 11 18 8 20 -3 3
-11 -1 -18 -10z"/>
</g>
</svg>
